<?xml version="1.0" encoding="UTF-8" standalone="no"?>
<!-- Created with Inkscape (http://www.inkscape.org/) -->

<svg
   width="61.25mm"
   height="51.040676mm"
   viewBox="0 0 61.25 51.040676"
   version="1.1"
   id="svg5"
   inkscape:version="1.1.2 (0a00cf5339, 2022-02-04, custom)"
   sodipodi:docname="moodledii.svg"
   xmlns:inkscape="http://www.inkscape.org/namespaces/inkscape"
   xmlns:sodipodi="http://sodipodi.sourceforge.net/DTD/sodipodi-0.dtd"
   xmlns="http://www.w3.org/2000/svg"
   xmlns:svg="http://www.w3.org/2000/svg">
  <sodipodi:namedview
     id="namedview7"
     pagecolor="#ffffff"
     bordercolor="#666666"
     borderopacity="1.0"
     inkscape:pageshadow="2"
     inkscape:pageopacity="0.0"
     inkscape:pagecheckerboard="0"
     inkscape:document-units="mm"
     showgrid="false"
     fit-margin-top="0"
     fit-margin-left="0"
     fit-margin-right="0"
     fit-margin-bottom="0"
     inkscape:zoom="1.5304854"
     inkscape:cx="181.31502"
     inkscape:cy="168.57397"
     inkscape:window-width="1920"
     inkscape:window-height="1011"
     inkscape:window-x="0"
     inkscape:window-y="32"
     inkscape:window-maximized="1"
     inkscape:current-layer="g879" />
  <defs
     id="defs2">
    <clipPath
       id="clip-0">
      <path
         clip-rule="nonzero"
         d="M 79,0 H 231.92187 V 193 H 79 Z m 0,0"
         id="path824" />
    </clipPath>
    <clipPath
       id="clip-1">
      <path
         clip-rule="nonzero"
         d="M 0,0 H 96 V 193.33594 H 0 Z m 0,0"
         id="path827" />
    </clipPath>
  </defs>
  <g
     inkscape:label="Layer 1"
     inkscape:groupmode="layer"
     id="layer1"
     transform="translate(-7.0618444,-87.194446)">
    <g
       id="g879"
       transform="matrix(0.26458333,0,0,0.26458333,7.0241852,87.119448)">
      <g
         clip-path="url(#clip-0)"
         id="g834">
        <path
           fill-rule="nonzero"
           fill="#86232a"
           fill-opacity="1"
           stroke-width="1.03465"
           stroke-linecap="butt"
           stroke-linejoin="round"
           stroke="#86232a"
           stroke-opacity="1"
           stroke-miterlimit="4"
           d="M 110.66016,0.800781 H 231.12109 L 200.05859,192.47656 H 79.515625 Z m 0,0"
           id="path832" />
      </g>
      <path
         fill-rule="nonzero"
         fill="#ffffff"
         fill-opacity="1"
         d="M 93.230469,183.38672 H 135.76172 L 153.44141,75.089844 h -42.58985 z m 0,0"
         id="path836" />
      <path
         fill-rule="nonzero"
         fill="#ffffff"
         fill-opacity="1"
         d="m 147.60547,183.38672 h 42.53125 L 207.81641,75.089844 h -42.58985 z m 0,0"
         id="path838" />
      <path
         fill="none"
         stroke-width="0.613719"
         stroke-linecap="butt"
         stroke-linejoin="round"
         stroke="#86232a"
         stroke-opacity="1"
         stroke-miterlimit="4"
         d="m 137.1581,-37.973384 c -3.9e-4,12.164286 -8.82061,22.022263 -19.70258,22.023719 -10.87904,-2.35e-4 -19.70061,-9.860226 -19.703153,-22.02282 0.0021,-12.161357 8.822293,-22.019333 19.704263,-22.02079 10.88197,-0.0015 19.70355,9.858535 19.70147,22.019891 z m 0,0"
         transform="matrix(1,0.57735,-0.57735,1,0,0)"
         id="path840" />
      <path
         fill-rule="nonzero"
         fill="#ffffff"
         fill-opacity="1"
         d="m 159.08203,41.214844 c -7.02344,12.164062 -21.53516,16.929687 -32.41797,10.648437 -10.8789,-6.28125 -14.00781,-21.234375 -6.98828,-33.398437 7.02344,-12.160156 21.53516,-16.925782 32.41797,-10.644532 10.88281,6.28125 14.01172,21.234376 6.98828,33.394532 z m 0,0"
         id="path842" />
      <path
         fill="none"
         stroke-width="0.613719"
         stroke-linecap="butt"
         stroke-linejoin="round"
         stroke="#86232a"
         stroke-opacity="1"
         stroke-miterlimit="4"
         d="m 177.73721,-61.401734 c 0.003,12.162595 -8.8206,22.022263 -19.69965,22.022028 -10.88197,0.0015 -19.70354,-9.858535 -19.70315,-22.02282 -8.5e-4,-12.159665 8.82229,-22.019333 19.70133,-22.019098 10.88198,-0.0015 19.70355,9.858534 19.70147,22.01989"
         transform="matrix(1,0.57735,-0.57735,1,0,0)"
         id="path844" />
      <path
         fill-rule="nonzero"
         fill="#ffffff"
         fill-opacity="1"
         d="m 213.1875,41.214844 c -7.01953,12.164062 -21.53516,16.929687 -32.41406,10.648437 -10.88282,-6.28125 -14.01172,-21.234375 -6.98828,-33.398437 7.01953,-12.160156 21.53515,-16.925782 32.41406,-10.644532 10.88281,6.28125 14.01172,21.234376 6.98828,33.394532"
         id="path846" />
      <path
         fill-rule="nonzero"
         fill="#86232a"
         fill-opacity="1"
         d="M 95.050781,0.957031 63.96875,192.67578 H 29.433594 c -4.109375,-0.0312 -8.207032,-0.98437 -11.914063,-2.76172 -4.5,-2.16015 -8.398437,-5.53906 -11.25,-9.63672 -2.855469,-4.09375 -4.667969,-8.89843 -5.324219,-13.84765 -0.94921825,-7.125 0.507813,-14.5 3.796876,-20.89063 3.625,-7.04687 9.53125,-12.96875 16.75,-16.23437 6.429687,-2.90625 13.742187,-3.65235 20.71875,-2.58985 5.136718,0.78125 10.195312,2.5625 14.332031,5.69922 2.753906,2.08594 5.0625,4.75 6.734375,7.76953 L 87.007812,0.957031 Z m 0,0"
         id="path848" />
      <g
         clip-path="url(#clip-1)"
         id="g852">
        <path
           fill="none"
           stroke-width="1.03465"
           stroke-linecap="butt"
           stroke-linejoin="round"
           stroke="#86232a"
           stroke-opacity="1"
           stroke-miterlimit="4"
           d="M 95.050781,0.957031 63.96875,192.67578 H 29.433594 c -4.109375,-0.0312 -8.207032,-0.98437 -11.914063,-2.76172 -4.5,-2.16015 -8.398437,-5.53906 -11.25,-9.63672 -2.855469,-4.09375 -4.667969,-8.89843 -5.324219,-13.84765 -0.94921825,-7.125 0.507813,-14.5 3.796876,-20.89063 3.625,-7.04687 9.53125,-12.96875 16.75,-16.23437 6.429687,-2.90625 13.742187,-3.65235 20.71875,-2.58985 5.136718,0.78125 10.195312,2.5625 14.332031,5.69922 2.753906,2.08594 5.0625,4.75 6.734375,7.76953 L 87.007812,0.957031 Z m 0,0"
           id="path850" />
      </g>
      <path
         fill="none"
         stroke-width="0.613719"
         stroke-linecap="butt"
         stroke-linejoin="round"
         stroke="#86232a"
         stroke-opacity="1"
         stroke-miterlimit="4"
         d="m 114.38642,105.02541 c 0.003,12.16259 -8.8206,22.02226 -19.699646,22.02202 -10.883663,-0.001 -19.703543,-9.85853 -19.703156,-22.02282 -0.0025,-12.16259 8.820602,-22.022258 19.699644,-22.022023 10.883668,0.0015 19.703548,9.858534 19.703158,22.022823"
         transform="matrix(1,0.57735,-0.57735,1,0,0)"
         id="path854" />
      <path
         fill-rule="nonzero"
         fill="#ffffff"
         fill-opacity="1"
         d="m 53.75,171.06641 c -7.019531,12.16406 -21.535156,16.92968 -32.414062,10.64843 -10.882813,-6.28515 -14.011719,-21.23437 -6.988282,-33.39843 7.019532,-12.16407 21.535156,-16.92969 32.414063,-10.64844 10.882812,6.28515 14.011719,21.23437 6.988281,33.39844"
         id="path856" />
    </g>
  </g>
</svg>
