<?xml version="1.0" encoding="UTF-8" standalone="no"?>
<!-- Created with Inkscape (http://www.inkscape.org/) -->

<svg
   width="61.25mm"
   height="51.040676mm"
   viewBox="0 0 61.25 51.040676"
   version="1.1"
   id="svg5"
   inkscape:version="1.1.2 (0a00cf5339, 2022-02-04, custom)"
   sodipodi:docname="moodledii.svg"
   xmlns:inkscape="http://www.inkscape.org/namespaces/inkscape"
   xmlns:sodipodi="http://sodipodi.sourceforge.net/DTD/sodipodi-0.dtd"
   xmlns="http://www.w3.org/2000/svg"
   xmlns:svg="http://www.w3.org/2000/svg">
  <sodipodi:namedview
     id="namedview7"
     pagecolor="#ffffff"
     bordercolor="#666666"
     borderopacity="1.0"
     inkscape:pageshadow="2"
     inkscape:pageopacity="0.0"
     inkscape:pagecheckerboard="0"
     inkscape:document-units="mm"
     showgrid="false"
     fit-margin-top="0"
     fit-margin-left="0"
     fit-margin-right="0"
     fit-margin-bottom="0"
     inkscape:zoom="1.0822166"
     inkscape:cx="307.23979"
     inkscape:cy="99.795179"
     inkscape:window-width="1920"
     inkscape:window-height="1011"
     inkscape:window-x="0"
     inkscape:window-y="32"
     inkscape:window-maximized="1"
     inkscape:current-layer="g879" />
  <defs
     id="defs2">
    <clipPath
       id="clip-0">
      <path
         clip-rule="nonzero"
         d="M 79,0 H 231.92187 V 193 H 79 Z m 0,0"
         id="path824" />
    </clipPath>
    <clipPath
       id="clip-1">
      <path
         clip-rule="nonzero"
         d="M 0,0 H 96 V 193.33594 H 0 Z m 0,0"
         id="path827" />
    </clipPath>
  </defs>
  <g
     inkscape:label="Layer 1"
     inkscape:groupmode="layer"
     id="layer1"
     transform="translate(-7.0618444,-87.194446)">
    <g
       id="g879"
       transform="matrix(0.26458333,0,0,0.26458333,7.0241852,87.119448)">
      <g
         clip-path="url(#clip-0)"
         id="g834"
         style="fill:#872329;fill-opacity:1">
        <path
           id="path832"
           d="M 110.51758 0.51757812 L 79.373047 192.19336 L 199.91602 192.19336 L 230.97852 0.51757812 L 110.51758 0.51757812 z M 141.02539 4.7734375 C 144.79577 4.6901959 148.55029 5.5742188 151.95117 7.5371094 C 162.83398 13.818359 165.96289 28.771485 158.93945 40.931641 C 151.91601 53.095701 137.40429 57.861328 126.52148 51.580078 C 115.64258 45.298828 112.51367 30.345701 119.5332 18.181641 C 124.36182 9.8215332 132.73055 4.956569 141.02539 4.7734375 z M 195.13281 4.7734375 C 198.90302 4.6901959 202.65698 5.5742188 206.05664 7.5371094 C 216.93945 13.818359 220.06836 28.771485 213.04492 40.931641 C 206.02539 53.095702 191.50976 57.861328 180.63086 51.580078 C 169.74804 45.298828 166.61914 30.345702 173.64258 18.181641 C 178.4685 9.8215335 186.83835 4.956569 195.13281 4.7734375 z M 110.70898 74.806641 L 153.29883 74.806641 L 135.61914 183.10352 L 93.087891 183.10352 L 110.70898 74.806641 z M 165.08398 74.806641 L 207.67383 74.806641 L 189.99414 183.10352 L 147.46289 183.10352 L 165.08398 74.806641 z "
           transform="translate(0.14233399,0.28345701)"
           style="fill:#872329;fill-opacity:1" />
      </g>
      <path
         id="path848"
         d="M 87.007815,0.95702812 63.277344,140.18359 c -1.671875,-3.01953 -3.980469,-5.68359 -6.734375,-7.76953 -4.136719,-3.13672 -9.195314,-4.91797 -14.332032,-5.69922 -6.976563,-1.0625 -14.289063,-0.31641 -20.71875,2.58984 -7.21875,3.26562 -13.125,9.18751 -16.75,16.23438 -3.289063,6.39063 -4.746093,13.76562 -3.796875,20.89062 0.65625,4.94922 2.46875,9.75391 5.324219,13.84766 2.851563,4.09766 6.75,7.47657 11.25,9.63672 3.707031,1.77735 7.804688,2.73052 11.914063,2.76172 H 63.96875 L 95.050785,0.95702812 Z M 35.83789,134.90429 c 3.770209,-0.0834 7.52417,0.80079 10.923829,2.76368 10.882811,6.28515 14.011719,21.23436 6.988281,33.39843 -7.019531,12.16406 -21.535157,16.92969 -32.414063,10.64844 -10.882812,-6.28515 -14.011718,-21.23438 -6.988281,-33.39844 4.825928,-8.36279 13.195776,-13.22871 21.490234,-13.41211 z"
         style="fill:#86232a;fill-opacity:1;stroke-width:1.00157;stroke-miterlimit:4;stroke-dasharray:none" />
    </g>
  </g>
</svg>
